#Comment line ignore any data following # character 
#Hierarchical Translation and Rotation (.htr) file 
[Header]	
#Header keywords are followed by a single value 
FileType HTR		#Single word string
DataType HTRS		#Translation followed by rotation and scale data
FileVersion 1		#integer
NumSegments 84		#integer
NumFrames 2		#integer
DataFrameRate 30		#integer, data frame rate in this file
EulerRotationOrder ZYX
CalibrationUnits mm
RotationUnits Degrees
GlobalAxisofGravity Y
BoneLengthAxis Y
ScaleFactor 1.00
[SegmentNames&Hierarchy]
#CHILD	PARENT
MASTER GLOBAL
root MASTER
chest root
L_mid_tent01 root
R_mid_tent01 root
spine01 root
Bip01_Neck chest
L_humerus chest
R_humerus chest
weapon_bone chest
Bip01_Head Bip01_Neck
eye_left_bone Bip01_Head
eye_right_bone Bip01_Head
L_forearm L_humerus
L_front_hand L_forearm
L_weapon_bone L_forearm
L_front_hand01_01 L_front_hand
L_front_hand02_01 L_front_hand
L_front_hand03_01 L_front_hand
L_front_hand01_02 L_front_hand01_01
L_front_hand02_02 L_front_hand02_01
L_front_hand03_02 L_front_hand03_01
R_forearm R_humerus
R_front_hand R_forearm
R_weapon_bone R_forearm
R_front_hand01_01 R_front_hand
R_front_hand02_01 R_front_hand
R_front_hand03_01 R_front_hand
R_front_hand01_02 R_front_hand01_01
R_front_hand02_02 R_front_hand02_01
R_front_hand03_02 R_front_hand03_01
null_rope01_connect L_mid_tent01
Rope1_Seg01 null_rope01_connect
Rope1_Seg02 Rope1_Seg01
Rope1_Seg03 Rope1_Seg02
Rope1_Seg04 Rope1_Seg03
Rope1_Seg05 Rope1_Seg04
Rope1_Seg06 Rope1_Seg05
Rope1_Seg07 Rope1_Seg06
Rope1_Seg09 Rope1_Seg07
L_mid_hand01 Rope1_Seg09
L_mid_hand02 Rope1_Seg09
L_mid_hand03 Rope1_Seg09
null_rope02_connect R_mid_tent01
Rope2_Seg01 null_rope02_connect
Rope2_Seg02 Rope2_Seg01
Rope2_Seg03 Rope2_Seg02
Rope2_Seg04 Rope2_Seg03
Rope2_Seg05 Rope2_Seg04
Rope2_Seg06 Rope2_Seg05
Rope2_Seg07 Rope2_Seg06
Rope2_Seg09 Rope2_Seg07
R_mid_hand01 Rope2_Seg09
R_mid_hand02 Rope2_Seg09
R_mid_hand03 Rope2_Seg09
spine02 spine01
spine03 spine02
pelvis spine03
null_rope03_connect pelvis
null_rope04_connect pelvis
Rope3_Seg01 null_rope03_connect
Rope3_Seg02 Rope3_Seg01
Rope3_Seg03 Rope3_Seg02
Rope3_Seg04 Rope3_Seg03
Rope3_Seg05 Rope3_Seg04
Rope3_Seg06 Rope3_Seg05
Rope3_Seg07 Rope3_Seg06
Rope3_Seg08 Rope3_Seg07
Rope3_Seg09 Rope3_Seg08
R_rear_hand01 Rope3_Seg09
R_rear_hand02 Rope3_Seg09
R_rear_hand03 Rope3_Seg09
Rope4_Seg01 null_rope04_connect
Rope4_Seg02 Rope4_Seg01
Rope4_Seg03 Rope4_Seg02
Rope4_Seg04 Rope4_Seg03
Rope4_Seg05 Rope4_Seg04
Rope4_Seg06 Rope4_Seg05
Rope4_Seg07 Rope4_Seg06
Rope4_Seg08 Rope4_Seg07
Rope4_Seg09 Rope4_Seg08
L_rear_hand01 Rope4_Seg09
L_rear_hand02 Rope4_Seg09
L_rear_hand03 Rope4_Seg09
[BasePosition]
#SegmentName Tx, Ty, Tz, Rx, Ry, Rz, BoneLength
MASTER 0.000000 0.000000 0.000000 -90.000000 0.000000 0.000000 10.000000 
root 0.000000 0.000000 0.000000 0.000000 0.000000 0.000000 10.000000 
chest 0.000000 0.000000 0.000000 0.000000 0.000000 0.000000 10.000000 
L_mid_tent01 0.000000 0.000000 0.000000 0.000000 0.000000 0.000000 10.000000 
R_mid_tent01 0.000000 0.000000 0.000000 0.000000 0.000000 0.000000 10.000000 
spine01 0.000000 0.000000 0.000000 0.000000 0.000000 0.000000 10.000000 
Bip01_Neck 0.000000 0.000000 0.000000 0.000000 0.000000 0.000000 10.000000 
L_humerus 0.000000 0.000000 0.000000 0.000000 0.000000 0.000000 10.000000 
R_humerus 0.000000 0.000000 0.000000 0.000000 0.000000 0.000000 10.000000 
weapon_bone 0.000000 0.000000 0.000000 0.000000 0.000000 0.000000 10.000000 
Bip01_Head 0.000000 0.000000 0.000000 0.000000 0.000000 0.000000 10.000000 
eye_left_bone 0.000000 0.000000 0.000000 0.000000 0.000000 0.000000 10.000000 
eye_right_bone 0.000000 0.000000 0.000000 0.000000 0.000000 0.000000 10.000000 
L_forearm 0.000000 0.000000 0.000000 0.000000 0.000000 0.000000 10.000000 
L_front_hand 0.000000 0.000000 0.000000 0.000000 0.000000 0.000000 10.000000 
L_weapon_bone 0.000000 0.000000 0.000000 0.000000 0.000000 0.000000 10.000000 
L_front_hand01_01 0.000000 0.000000 0.000000 0.000000 0.000000 0.000000 10.000000 
L_front_hand02_01 0.000000 0.000000 0.000000 0.000000 0.000000 0.000000 10.000000 
L_front_hand03_01 0.000000 0.000000 0.000000 0.000000 0.000000 0.000000 10.000000 
L_front_hand01_02 0.000000 0.000000 0.000000 0.000000 0.000000 0.000000 10.000000 
L_front_hand02_02 0.000000 0.000000 0.000000 0.000000 0.000000 0.000000 10.000000 
L_front_hand03_02 0.000000 0.000000 0.000000 0.000000 0.000000 0.000000 10.000000 
R_forearm 0.000000 0.000000 0.000000 0.000000 0.000000 0.000000 10.000000 
R_front_hand 0.000000 0.000000 0.000000 0.000000 0.000000 0.000000 10.000000 
R_weapon_bone 0.000000 0.000000 0.000000 0.000000 0.000000 0.000000 10.000000 
R_front_hand01_01 0.000000 0.000000 0.000000 0.000000 0.000000 0.000000 10.000000 
R_front_hand02_01 0.000000 0.000000 0.000000 0.000000 0.000000 0.000000 10.000000 
R_front_hand03_01 0.000000 0.000000 0.000000 0.000000 0.000000 0.000000 10.000000 
R_front_hand01_02 0.000000 0.000000 0.000000 0.000000 0.000000 0.000000 10.000000 
R_front_hand02_02 0.000000 0.000000 0.000000 0.000000 0.000000 0.000000 10.000000 
R_front_hand03_02 0.000000 0.000000 0.000000 0.000000 0.000000 0.000000 10.000000 
null_rope01_connect 0.000000 0.000000 0.000000 0.000000 0.000000 0.000000 10.000000 
Rope1_Seg01 0.000000 0.000000 0.000000 0.000000 0.000000 0.000000 10.000000 
Rope1_Seg02 0.000000 0.000000 0.000000 0.000000 0.000000 0.000000 10.000000 
Rope1_Seg03 0.000000 0.000000 0.000000 0.000000 0.000000 0.000000 10.000000 
Rope1_Seg04 0.000000 0.000000 0.000000 0.000000 0.000000 0.000000 10.000000 
Rope1_Seg05 0.000000 0.000000 0.000000 0.000000 0.000000 0.000000 10.000000 
Rope1_Seg06 0.000000 0.000000 0.000000 0.000000 0.000000 0.000000 10.000000 
Rope1_Seg07 0.000000 0.000000 0.000000 0.000000 0.000000 0.000000 10.000000 
Rope1_Seg09 0.000000 0.000000 0.000000 0.000000 0.000000 0.000000 10.000000 
L_mid_hand01 0.000000 0.000000 0.000000 0.000000 0.000000 0.000000 10.000000 
L_mid_hand02 0.000000 0.000000 0.000000 0.000000 0.000000 0.000000 10.000000 
L_mid_hand03 0.000000 0.000000 0.000000 0.000000 0.000000 0.000000 10.000000 
null_rope02_connect 0.000000 0.000000 0.000000 0.000000 0.000000 0.000000 10.000000 
Rope2_Seg01 0.000000 0.000000 0.000000 0.000000 0.000000 0.000000 10.000000 
Rope2_Seg02 0.000000 0.000000 0.000000 0.000000 0.000000 0.000000 10.000000 
Rope2_Seg03 0.000000 0.000000 0.000000 0.000000 0.000000 0.000000 10.000000 
Rope2_Seg04 0.000000 0.000000 0.000000 0.000000 0.000000 0.000000 10.000000 
Rope2_Seg05 0.000000 0.000000 0.000000 0.000000 0.000000 0.000000 10.000000 
Rope2_Seg06 0.000000 0.000000 0.000000 0.000000 0.000000 0.000000 10.000000 
Rope2_Seg07 0.000000 0.000000 0.000000 0.000000 0.000000 0.000000 10.000000 
Rope2_Seg09 0.000000 0.000000 0.000000 0.000000 0.000000 0.000000 10.000000 
R_mid_hand01 0.000000 0.000000 0.000000 0.000000 0.000000 0.000000 10.000000 
R_mid_hand02 0.000000 0.000000 0.000000 0.000000 0.000000 0.000000 10.000000 
R_mid_hand03 0.000000 0.000000 0.000000 0.000000 0.000000 0.000000 10.000000 
spine02 0.000000 0.000000 0.000000 0.000000 0.000000 0.000000 10.000000 
spine03 0.000000 0.000000 0.000000 0.000000 0.000000 0.000000 10.000000 
pelvis 0.000000 0.000000 0.000000 0.000000 0.000000 0.000000 10.000000 
null_rope03_connect 0.000000 0.000000 0.000000 0.000000 0.000000 0.000000 10.000000 
null_rope04_connect 0.000000 0.000000 0.000000 0.000000 0.000000 0.000000 10.000000 
Rope3_Seg01 0.000000 0.000000 0.000000 0.000000 0.000000 0.000000 10.000000 
Rope3_Seg02 0.000000 0.000000 0.000000 0.000000 0.000000 0.000000 10.000000 
Rope3_Seg03 0.000000 0.000000 0.000000 0.000000 0.000000 0.000000 10.000000 
Rope3_Seg04 0.000000 0.000000 0.000000 0.000000 0.000000 0.000000 10.000000 
Rope3_Seg05 0.000000 0.000000 0.000000 0.000000 0.000000 0.000000 10.000000 
Rope3_Seg06 0.000000 0.000000 0.000000 0.000000 0.000000 0.000000 10.000000 
Rope3_Seg07 0.000000 0.000000 0.000000 0.000000 0.000000 0.000000 10.000000 
Rope3_Seg08 0.000000 0.000000 0.000000 0.000000 0.000000 0.000000 10.000000 
Rope3_Seg09 0.000000 0.000000 0.000000 0.000000 0.000000 0.000000 10.000000 
R_rear_hand01 0.000000 0.000000 0.000000 0.000000 0.000000 0.000000 10.000000 
R_rear_hand02 0.000000 0.000000 0.000000 0.000000 0.000000 0.000000 10.000000 
R_rear_hand03 0.000000 0.000000 0.000000 0.000000 0.000000 0.000000 10.000000 
Rope4_Seg01 0.000000 0.000000 0.000000 0.000000 0.000000 0.000000 10.000000 
Rope4_Seg02 0.000000 0.000000 0.000000 0.000000 0.000000 0.000000 10.000000 
Rope4_Seg03 0.000000 0.000000 0.000000 0.000000 0.000000 0.000000 10.000000 
Rope4_Seg04 0.000000 0.000000 0.000000 0.000000 0.000000 0.000000 10.000000 
Rope4_Seg05 0.000000 0.000000 0.000000 0.000000 0.000000 0.000000 10.000000 
Rope4_Seg06 0.000000 0.000000 0.000000 0.000000 0.000000 0.000000 10.000000 
Rope4_Seg07 0.000000 0.000000 0.000000 0.000000 0.000000 0.000000 10.000000 
Rope4_Seg08 0.000000 0.000000 0.000000 0.000000 0.000000 0.000000 10.000000 
Rope4_Seg09 0.000000 0.000000 0.000000 0.000000 0.000000 0.000000 10.000000 
L_rear_hand01 0.000000 0.000000 0.000000 0.000000 0.000000 0.000000 10.000000 
L_rear_hand02 0.000000 0.000000 0.000000 0.000000 0.000000 0.000000 10.000000 
L_rear_hand03 0.000000 0.000000 0.000000 0.000000 0.000000 0.000000 10.000000 
#Beginning of Data. Separated by tabs
#Fr	Tx	Ty	Tz	Rx	Ry	Rz	SF
[MASTER]
26 0.000000 0.000000 0.000000 0.001660 0.001660 0.001660 0.000000
27 0.000000 0.000000 0.000000 0.001660 0.001660 0.001660 0.000000
[root]
26 -18.641624 -62.822117 605.660950 -85.677200 -4.090305 -90.652489 609.195679
27 -17.938635 -62.822117 620.835144 -85.785660 -3.686723 -90.671036 624.263306
[chest]
26 -82.502945 -13.849271 -14.842882 3.286780 5.147380 160.375992 84.963814
27 -82.997253 -18.827648 -11.192238 3.475388 6.581621 161.660858 85.838753
[L_mid_tent01]
26 26.696415 22.523045 -246.042847 24.338900 17.552856 99.557884 248.509705
27 26.027367 22.906380 -241.743881 36.572994 21.865957 99.937889 244.217590
[R_mid_tent01]
26 23.228794 24.509907 226.238495 -160.387085 -24.828171 93.491287 228.744751
27 23.228794 24.509907 226.238495 -134.824142 -23.015215 98.077332 228.744751
[spine01]
26 -0.361383 -0.195265 0.000000 -0.000001 -0.000007 22.052340 0.410763
27 -0.361383 -0.195265 0.000000 -0.000001 -0.000007 22.052340 0.410763
[Bip01_Neck]
26 165.484543 71.581718 0.000119 175.896118 1.177290 24.871183 180.302734
27 165.484543 71.581718 0.000119 175.896118 1.177290 24.871183 180.302734
[L_humerus]
26 -13.983130 -135.272980 -120.471481 25.980137 71.341164 121.731567 181.680161
27 -13.983130 -135.272980 -120.471481 14.199868 72.557594 107.502243 181.680161
[R_humerus]
26 -13.983309 -135.273102 125.287651 -16.430927 -60.873974 124.548569 184.909012
27 -13.983309 -135.273102 125.287651 -12.934881 -59.008766 116.949982 184.909012
[weapon_bone]
26 235.964890 -300.705902 0.000000 0.000000 -89.951546 -128.212341 382.234833
27 235.964890 -300.705902 0.000000 0.000000 -89.951546 -128.212341 382.234833
[Bip01_Head]
26 206.162018 145.203064 11.691377 3.136106 3.557210 -22.212315 252.434937
27 204.948288 137.301254 14.130127 0.015459 2.037232 -23.894144 247.093292
[eye_left_bone]
26 -24.626970 125.451866 -64.772606 0.000000 -90.000000 -99.840431 143.318359
27 -24.626970 125.451866 -64.772606 0.000000 -90.000000 -99.840431 143.318359
[eye_right_bone]
26 -24.626970 125.451866 64.327362 0.000000 -89.960434 80.159386 143.117676
27 -24.626970 125.451866 64.327362 0.000000 -89.960434 80.159386 143.117676
[L_forearm]
26 322.776093 0.000000 -0.000119 0.000127 -0.002344 -96.220016 322.776093
27 322.776093 0.000000 -0.000119 0.000102 -0.002345 -94.984955 322.776093
[L_front_hand]
26 241.149185 -0.042021 -3.300071 120.679993 3.798719 -9.415804 241.171753
27 241.149185 -0.042021 -3.300071 111.247086 2.746763 -12.723154 241.171753
[L_weapon_bone]
26 156.183838 0.000000 0.000000 0.000014 0.000007 0.000001 156.183838
27 156.183838 0.000000 0.000000 0.000014 0.000007 0.000001 156.183838
[L_front_hand01_01]
26 86.095154 20.947098 -0.655860 -0.366594 -0.477154 75.385582 88.609184
27 86.095154 20.947098 -0.655860 -0.366594 -0.477154 75.385574 88.609184
[L_front_hand02_01]
26 86.935165 -11.437475 24.513514 154.399811 -59.883835 -61.369606 91.046425
27 86.935165 -11.437475 24.513514 154.399796 -59.883835 -61.369587 91.046425
[L_front_hand03_01]
26 86.637497 -14.123976 -20.424902 -153.913849 58.118130 -62.702866 90.126129
27 86.637497 -14.123976 -20.424902 -153.913849 58.118122 -62.702866 90.126129
[L_front_hand01_02]
26 71.020905 -0.000179 0.000030 0.000249 0.002334 -77.804893 71.020905
27 71.020905 -0.000179 0.000030 0.000062 0.002346 -86.948883 71.020905
[L_front_hand02_02]
26 71.020927 -0.000119 0.000060 0.000249 0.002334 -77.804893 71.020927
27 71.020927 -0.000119 0.000060 0.000062 0.002346 -86.948883 71.020927
[L_front_hand03_02]
26 71.020905 -0.000060 0.000060 0.000249 0.002334 -77.804893 71.020905
27 71.020905 -0.000060 0.000060 0.000062 0.002346 -86.948883 71.020905
[R_forearm]
26 322.776428 -0.000060 0.000030 0.211911 -0.028829 -82.622787 322.776428
27 322.776428 -0.000060 0.000030 0.211985 -0.028280 -82.919403 322.776428
[R_front_hand]
26 238.847015 -0.006795 2.210259 63.914181 -7.616789 -18.471157 238.857239
27 238.847015 -0.006795 2.210259 74.138542 -6.043245 -23.103092 238.857239
[R_weapon_bone]
26 155.664093 0.002503 -0.000030 0.003487 0.001180 -90.988930 155.664078
27 155.664093 0.002503 -0.000030 0.003487 0.001180 -90.988930 155.664078
[R_front_hand01_01]
26 87.624611 14.231146 22.918642 -154.633484 -59.950607 61.746033 91.683487
27 87.624611 14.231146 22.918642 -154.633499 -59.950619 61.746044 91.683487
[R_front_hand02_01]
26 89.356956 14.367283 -19.491137 154.595825 58.306164 63.741703 92.579636
27 89.356956 14.367283 -19.491137 154.595840 58.306175 63.741730 92.579636
[R_front_hand03_01]
26 87.286232 -22.307278 -0.143439 0.162155 -0.423168 -75.767906 90.091743
27 87.286232 -22.307278 -0.143439 0.162155 -0.423168 -75.767921 90.091743
[R_front_hand01_02]
26 71.020905 0.000060 0.000119 0.002334 0.000249 77.809174 71.020905
27 71.020905 0.000060 0.000119 0.002346 0.000062 86.953461 71.020905
[R_front_hand02_02]
26 71.020844 -0.000030 -0.000119 0.002334 0.000249 77.809174 71.020836
27 71.020844 -0.000030 -0.000119 0.002346 0.000062 86.953461 71.020836
[R_front_hand03_02]
26 71.020905 0.000000 0.000030 0.002334 0.000249 77.809174 71.020905
27 71.020905 0.000000 0.000030 0.002346 0.000062 86.953461 71.020905
[null_rope01_connect]
26 328.732483 0.000000 -0.000238 -122.326492 -62.553860 119.760757 328.732483
27 328.732483 0.000000 -0.000238 -118.473579 -49.989185 118.128723 328.732483
[Rope1_Seg01]
26 -0.000022 0.000006 0.000025 126.336304 -28.478785 123.730911 0.000034
27 -0.000022 0.000005 0.000020 128.566864 -30.535168 121.518066 0.000030
[Rope1_Seg02]
26 139.999863 -0.000179 0.000000 -1.546028 -1.591233 -1.831935 139.999863
27 139.999863 -0.000179 0.000000 -1.871493 -1.676123 -2.157618 139.999863
[Rope1_Seg03]
26 139.999924 0.000060 -0.000060 -2.266442 -2.330776 -2.837034 139.999924
27 139.999924 0.000060 -0.000060 -2.760649 -2.476249 -3.412894 139.999924
[Rope1_Seg04]
26 139.999924 -0.000060 -0.000119 -3.703563 -3.875357 -5.142830 139.999924
27 139.999924 -0.000060 -0.000119 -4.504995 -4.167533 -6.405345 139.999924
[Rope1_Seg05]
26 139.999832 0.000119 -0.000060 -7.142255 -8.831117 -12.675828 139.999832
27 139.999832 0.000119 -0.000060 -8.083448 -9.068543 -18.140676 139.999832
[Rope1_Seg06]
26 139.999954 0.000119 -0.000060 -4.586917 -15.849005 -41.372044 139.999954
27 139.999954 0.000119 -0.000060 -2.072971 -14.002962 -42.614235 139.999954
[Rope1_Seg07]
26 139.999985 0.000060 0.000000 5.347968 -5.689096 -34.266426 139.999985
27 139.999985 0.000060 0.000000 5.864375 -7.134525 -28.214962 139.999985
[Rope1_Seg09]
26 121.602913 0.000119 -0.000089 -89.793175 -1.359789 0.847147 121.602913
27 121.602913 0.000119 -0.000089 -89.793175 -1.359789 0.847147 121.602913
[L_mid_hand01]
26 103.859421 1.038730 8.195221 106.243362 -27.610722 -8.221345 104.187431
27 103.859421 1.038730 8.195221 106.243362 -27.610722 -8.221345 104.187431
[L_mid_hand02]
26 105.572853 -4.139662 -10.864139 -140.972244 23.403244 -25.511135 106.211075
27 105.572853 -4.139662 -10.864139 -140.972244 23.403244 -25.511135 106.211075
[L_mid_hand03]
26 104.641464 17.579376 -3.913581 -16.709753 8.664801 30.543972 106.179977
27 104.641464 17.579376 -3.913581 -16.709753 8.664801 30.543972 106.179977
[null_rope02_connect]
26 328.732849 0.000179 -0.000119 143.960815 55.127663 -31.603872 328.732849
27 328.732849 0.000179 -0.000119 110.062195 38.740456 -54.070683 328.732849
[Rope2_Seg01]
26 -0.000048 -0.000100 0.000000 -53.506210 -25.092646 60.700043 0.000111
27 -0.000053 -0.000109 0.000000 -52.191349 -25.053558 57.070431 0.000121
[Rope2_Seg02]
26 139.999741 -0.000060 -0.000119 1.924061 2.498760 4.601538 139.999756
27 139.999741 -0.000060 -0.000119 1.787110 2.316067 5.273868 139.999756
[Rope2_Seg03]
26 140.000107 0.000030 0.000000 2.878164 3.993560 6.843215 140.000107
27 140.000107 0.000030 0.000000 2.768374 3.729341 7.873860 140.000107
[Rope2_Seg04]
26 139.999802 0.000000 -0.000060 4.492648 7.295003 10.752465 139.999802
27 139.999802 0.000000 -0.000060 4.305001 6.098793 11.928188 139.999802
[Rope2_Seg05]
26 139.999985 -0.000060 0.000119 5.510317 11.056275 14.889512 139.999985
27 139.999985 -0.000060 0.000119 5.815198 9.925284 16.404463 139.999985
[Rope2_Seg06]
26 139.999893 -0.000030 -0.000119 9.675649 20.510170 31.413406 139.999893
27 139.999893 -0.000030 -0.000119 11.752544 23.924332 35.074188 139.999893
[Rope2_Seg07]
26 139.999893 0.000060 -0.000060 4.015049 22.580097 30.154566 139.999893
27 139.999893 0.000060 -0.000060 2.002665 20.798403 25.313562 139.999893
[Rope2_Seg09]
26 121.338966 0.000089 -0.000060 33.793236 -1.359788 -0.847141 121.338966
27 121.338966 0.000089 -0.000060 33.793236 -1.359788 -0.847141 121.338966
[R_mid_hand01]
26 104.680779 11.144459 -10.335981 -42.750736 22.953909 25.606682 105.778534
27 104.680779 11.144459 -10.335981 -42.750740 22.953909 25.606682 105.778534
[R_mid_hand02]
26 104.070427 2.443552 8.231699 73.485046 -29.224543 8.771014 104.424065
27 104.070427 2.443552 8.231699 73.485046 -29.224543 8.771014 104.424065
[R_mid_hand03]
26 106.028137 -11.221827 -5.996406 -167.274673 9.466213 -33.359016 106.788818
27 106.028137 -11.221827 -5.996406 -167.274673 9.466213 -33.359016 106.788818
[spine02]
26 129.756927 0.001550 0.000119 -0.085057 -4.051559 -6.650249 129.756927
27 129.756927 0.001550 0.000119 0.096269 -4.045249 -9.266024 129.756927
[spine03]
26 78.641891 0.082284 -4.624471 0.355431 4.499635 -5.242621 78.777786
27 78.718163 0.069071 -3.879836 0.306418 5.116316 -6.156139 78.813751
[pelvis]
26 169.435242 0.051022 0.000000 -0.014722 -0.068395 -5.727855 169.435257
27 169.435242 0.051022 0.000000 -0.048807 0.419429 -9.698750 169.435257
[null_rope03_connect]
26 -1.257226 -2.466202 137.391083 -9.241967 -85.053513 98.901886 137.418976
27 -1.257226 -2.466202 137.391083 -21.578671 -84.641525 118.277039 137.418976
[null_rope04_connect]
26 -1.259640 -2.480268 -137.844437 -9.241967 -85.053513 98.901886 137.872513
27 -1.259640 -2.480268 -137.844437 -21.578671 -84.641525 118.277039 137.872513
[Rope3_Seg01]
26 0.000000 0.000000 0.000000 -152.368469 -38.937462 -48.126129 0.000000
27 0.000000 0.000000 0.000000 -150.665741 -35.383507 -47.132366 0.000000
[Rope3_Seg02]
26 139.999924 -0.000119 0.000060 7.929992 -10.933981 10.649843 139.999924
27 139.999924 -0.000119 0.000060 8.259913 -10.756281 11.808516 139.999924
[Rope3_Seg03]
26 139.999924 -0.000119 0.000119 7.216852 -13.016026 17.772526 139.999924
27 139.999924 -0.000119 0.000119 6.719384 -11.628347 18.357038 139.999924
[Rope3_Seg04]
26 139.999924 0.000119 0.000000 2.888578 -8.379377 18.897022 139.999924
27 139.999924 0.000119 0.000000 2.386092 -6.390218 17.867588 139.999924
[Rope3_Seg05]
26 139.999924 -0.000238 0.000060 0.422088 -5.963175 12.539396 139.999924
27 139.999924 -0.000238 0.000060 0.225044 -5.349267 11.905117 139.999924
[Rope3_Seg06]
26 139.999893 -0.000119 -0.000060 -1.918321 -10.071651 16.161978 139.999893
27 139.999893 -0.000119 -0.000060 -2.195836 -10.234880 15.926554 139.999893
[Rope3_Seg07]
26 139.999771 0.000060 -0.000119 -6.159610 -12.995286 20.072079 139.999771
27 139.999771 0.000060 -0.000119 -6.434552 -13.362280 19.835726 139.999771
[Rope3_Seg08]
26 139.999985 -0.000060 0.000000 -4.007505 -7.648330 10.639742 139.999985
27 139.999985 -0.000060 0.000000 -4.123520 -7.903108 10.598907 139.999985
[Rope3_Seg09]
26 90.185997 -0.000179 -0.000060 89.793228 -1.359877 -0.847183 90.185997
27 90.185997 -0.000179 -0.000060 89.793228 -1.359877 -0.847183 90.185997
[R_rear_hand01]
26 103.366196 -6.073594 -10.757982 -161.551193 16.666374 -30.088671 104.101845
27 103.366196 -6.073594 -10.757982 -161.551193 16.666374 -30.088671 104.101845
[R_rear_hand02]
26 100.509819 12.039542 -7.992327 -34.280552 19.289745 28.875523 101.543350
27 100.509819 12.039542 -7.992327 -34.280552 19.289745 28.875523 101.543350
[R_rear_hand03]
26 101.539970 5.215704 5.435467 83.366440 -30.933914 7.284830 101.819031
27 101.539970 5.215704 5.435467 83.366440 -30.933914 7.284830 101.819031
[Rope4_Seg01]
26 -0.000021 -0.000051 -0.000095 82.464836 -44.350441 -144.663025 0.000110
27 -0.000022 -0.000048 -0.000099 79.282303 -42.165943 -143.100250 0.000113
[Rope4_Seg02]
26 139.999985 0.000060 0.000119 -8.816448 4.650059 -8.759369 139.999985
27 139.999985 0.000060 0.000119 -9.354065 5.196881 -9.354067 139.999985
[Rope4_Seg03]
26 139.999924 0.000000 -0.000238 -16.902754 12.121623 -16.830820 139.999924
27 139.999924 0.000000 -0.000238 -17.286993 13.344402 -17.563387 139.999924
[Rope4_Seg04]
26 139.999985 0.000000 0.000119 -21.778946 30.706226 -26.335201 139.999985
27 139.999985 0.000000 0.000119 -19.778751 30.891088 -24.870008 139.999985
[Rope4_Seg05]
26 139.999802 -0.000060 -0.000119 -3.048178 23.270254 -10.158502 139.999802
27 139.999802 -0.000060 -0.000119 -2.302680 21.053856 -9.204449 139.999802
[Rope4_Seg06]
26 139.999924 0.000000 0.000060 0.923148 8.542784 -5.675031 139.999924
27 139.999924 0.000000 0.000060 0.886294 8.125358 -5.361782 139.999924
[Rope4_Seg07]
26 139.999802 0.000000 0.000000 1.984838 7.828537 -9.825737 139.999802
27 139.999802 0.000000 0.000000 1.906007 7.892676 -9.218311 139.999802
[Rope4_Seg08]
26 139.999924 0.000000 0.000119 1.292130 9.929975 -10.655296 139.999924
27 139.999924 0.000000 0.000119 1.306432 10.100804 -10.139932 139.999924
[Rope4_Seg09]
26 90.185791 0.000060 0.000060 -135.617828 2.228885 0.850567 90.185791
27 90.185791 0.000060 0.000060 -135.617828 2.228885 0.850567 90.185791
[L_rear_hand01]
26 101.696655 -8.392275 -7.654577 -35.094456 -17.603006 153.690475 102.329041
27 101.696655 -8.392275 -7.654577 -35.094700 -17.602861 153.690460 102.329041
[L_rear_hand02]
26 102.726799 -1.568258 5.773216 83.558624 27.990807 173.101532 102.900848
27 102.726799 -1.568258 5.773216 83.558571 27.990648 173.101379 102.900848
[L_rear_hand03]
26 104.552910 9.721220 -10.420293 -160.738907 -15.709639 -152.831818 105.519653
27 104.552910 9.721220 -10.420293 -160.738892 -15.709602 -152.832047 105.519653
